<?xml version="1.0" standalone="no"?>
<!DOCTYPE svg PUBLIC "-//W3C//DTD SVG 20010904//EN" "http://www.w3.org/TR/2001/REC-SVG-20010904/DTD/svg10.dtd">
<svg version="1.0" xmlns="http://www.w3.org/2000/svg"
 width="200.000000pt" height="200.000000pt" viewBox="0 70 200.000000 200.000000"
 preserveAspectRatio="xMidYMid meet">

<g transform="translate(0.000000,200.000000) scale(0.100000,-0.100000)"
fill="#000000" stroke="none">
<path d="M1033 1153 c15 -2 37 -2 50 0 12 2 0 4 -28 4 -27 0 -38 -2 -22 -4z"/>
<path d="M997 1133 c-4 -3 -7 -21 -7 -40 l0 -33 70 0 c63 0 70 2 62 16 -5 9
-7 25 -5 34 3 10 0 21 -5 24 -6 4 -8 -2 -5 -15 5 -17 2 -20 -13 -17 -11 2 -18
11 -18 21 1 10 -5 17 -17 17 -10 0 -19 -7 -19 -15 0 -8 -10 -19 -21 -26 -20
-10 -21 -9 -17 15 6 28 5 30 -5 19z"/>
<path d="M494 1094 c3 -9 6 -47 6 -85 0 -39 4 -69 10 -69 6 0 10 12 10 27 l0
27 28 -27 c39 -38 63 -35 27 3 -28 29 -28 30 -10 50 10 11 14 20 9 20 -5 0
-15 -9 -22 -20 -21 -34 -32 -22 -32 35 0 44 -3 55 -16 55 -11 0 -14 -5 -10
-16z"/>
<path d="M1614 1094 c3 -9 6 -47 6 -85 0 -39 4 -69 10 -69 6 0 10 12 10 27 l0
27 28 -27 c39 -38 63 -35 27 3 -28 29 -28 30 -10 50 10 11 14 20 9 20 -5 0
-15 -9 -22 -20 -21 -34 -32 -22 -32 35 0 44 -3 55 -16 55 -11 0 -14 -5 -10
-16z"/>
<path d="M1755 1025 c0 -61 3 -85 13 -85 6 0 12 12 12 27 l0 27 28 -27 c15
-15 35 -27 43 -27 8 0 10 3 4 8 -5 4 -19 17 -29 30 -18 21 -18 23 -1 42 10 11
14 20 9 20 -5 0 -15 -9 -22 -20 -21 -34 -32 -22 -32 35 0 37 -4 55 -12 55 -10
0 -13 -24 -13 -85z"/>
<path d="M45 1077 c15 -12 17 -24 13 -85 -3 -40 -12 -79 -19 -88 -12 -15 -12
-17 1 -12 26 8 40 50 40 120 0 44 4 68 13 71 6 3 -6 6 -27 6 -36 1 -38 0 -21
-12z"/>
<path d="M1166 1073 c14 -14 15 -29 10 -87 -4 -38 -11 -75 -17 -83 -7 -8 -8
-13 -1 -13 22 0 35 35 40 108 3 42 10 80 16 84 6 4 -6 8 -27 8 -36 0 -37 -1
-21 -17z"/>
<path d="M645 1061 c-6 -6 -8 -35 -5 -68 5 -53 7 -58 30 -60 14 -1 17 1 8 3
-13 4 -18 19 -20 70 -2 44 -6 62 -13 55z"/>
<path d="M270 1040 c-11 -7 -12 -10 -1 -10 9 0 12 -12 9 -45 -2 -31 1 -45 9
-45 9 0 13 17 13 55 0 56 -4 62 -30 45z"/>
<path d="M317 1043 c-3 -5 1 -14 9 -20 14 -14 30 0 19 17 -7 12 -22 13 -28 3z"/>
<path d="M380 1030 c-11 -11 -20 -29 -20 -40 0 -25 34 -60 57 -60 14 0 13 3
-5 16 -32 22 -28 44 8 44 38 0 52 27 25 46 -26 19 -42 17 -65 -6z m58 -13 c3
-12 -3 -17 -22 -17 -25 0 -35 18 -19 34 12 12 38 2 41 -17z"/>
<path d="M850 1040 c-11 -7 -12 -10 -1 -10 9 0 12 -12 9 -45 -2 -31 1 -45 9
-45 9 0 13 17 13 55 0 56 -4 62 -30 45z"/>
<path d="M896 1041 c-3 -5 2 -8 12 -7 14 1 18 -9 20 -46 2 -29 8 -48 15 -48
16 0 10 92 -7 102 -15 10 -34 10 -40 -1z"/>
<path d="M1390 1039 c-12 -7 -12 -9 -1 -9 9 0 12 -12 9 -45 -2 -31 1 -45 9
-45 9 0 13 16 13 49 0 53 -7 65 -30 50z"/>
<path d="M1437 1043 c-3 -5 1 -14 9 -20 14 -14 30 0 19 17 -7 12 -22 13 -28 3z"/>
<path d="M1500 1030 c-11 -11 -20 -29 -20 -40 0 -25 34 -60 57 -60 14 0 13 3
-5 16 -32 22 -28 44 8 44 38 0 52 27 25 46 -26 19 -42 17 -65 -6z m58 -13 c3
-12 -3 -17 -22 -17 -25 0 -35 18 -19 34 12 12 38 2 41 -17z"/>
<path d="M1904 1042 c-37 -24 -36 -91 1 -106 30 -11 40 -6 17 10 -32 22 -28
44 8 44 38 0 52 27 25 46 -21 16 -35 17 -51 6z m44 -25 c3 -12 -3 -17 -22 -17
-25 0 -35 18 -19 34 12 12 38 2 41 -17z"/>
<path d="M118 1028 c7 -7 12 -29 12 -49 0 -29 5 -39 21 -44 12 -4 26 -2 31 3
7 7 4 10 -8 9 -16 -2 -20 6 -22 46 -3 40 -6 47 -25 47 -16 0 -18 -3 -9 -12z"/>
<path d="M188 1033 c7 -3 12 -24 12 -54 0 -38 3 -49 16 -49 11 0 14 5 10 16
-3 9 -6 33 -6 55 0 34 -3 39 -22 38 -13 0 -17 -3 -10 -6z"/>
<path d="M732 1028 c-20 -20 -14 -65 10 -82 28 -20 39 -20 64 -1 17 14 17 14
-10 3 -25 -11 -30 -10 -42 7 -21 29 -17 35 20 35 42 0 50 11 30 36 -14 19 -14
19 -12 -1 2 -15 -4 -21 -25 -23 -25 -3 -28 -1 -22 17 7 24 4 26 -13 9z"/>
<path d="M1238 1028 c7 -7 12 -29 12 -49 0 -29 5 -39 21 -44 12 -4 26 -2 31 3
7 7 4 10 -8 9 -16 -2 -20 6 -22 46 -3 40 -6 47 -25 47 -16 0 -18 -3 -9 -12z"/>
<path d="M1308 1033 c7 -3 12 -24 12 -54 0 -38 3 -49 16 -49 11 0 14 5 10 16
-3 9 -6 33 -6 55 0 34 -3 39 -22 38 -13 0 -17 -3 -10 -6z"/>
<path d="M990 1015 c0 -19 50 -85 65 -85 13 0 41 33 63 76 11 21 10 22 -58 20
-40 0 -70 -5 -70 -11z"/>
<path d="M1028 913 c17 -2 47 -2 65 0 17 2 3 4 -33 4 -36 0 -50 -2 -32 -4z"/>
</g>
</svg>